<svg width="29" height="29" viewBox="0 0 29 29" fill="none" xmlns="http://www.w3.org/2000/svg">
                <path d="M10.8306 21.1106C13.769 17.9203 16.6102 8.74546 10.002 2.65908C3.39376 -3.42729 -2.9117 2.99321 4.43436 9.75916" fill="#AF773F"/>
                <path d="M18.992 2.65973C18.6251 2.99664 18.2774 3.35385 17.9506 3.72967C16.8285 3.3889 15.6623 3.21577 14.4897 3.21588C8.19921 3.21588 3.09985 8.15959 3.09985 13.4233C3.09985 14.1312 3.19223 14.821 3.36737 15.4848C3.68994 16.7075 3.84032 17.968 3.84366 19.2325C3.84371 19.2494 3.84383 19.2663 3.84405 19.2832C3.87742 21.7502 5.89156 23.7658 8.35848 23.8003C9.56498 23.8172 10.6661 23.3673 11.4934 22.62C12.4482 22.8373 13.4526 22.954 14.4897 22.954C15.5268 22.954 16.5312 22.8373 17.4861 22.62C18.3133 23.3673 19.4144 23.8172 20.6208 23.8003C23.0878 23.7658 25.102 21.7503 25.1353 19.2833C25.1355 19.2663 25.1357 19.2494 25.1357 19.2324C25.139 17.9679 25.2895 16.7073 25.612 15.4846C25.7897 14.8119 25.8796 14.119 25.8795 13.4232C25.8795 12.0446 25.5291 10.6882 24.8998 9.43655C31.7014 2.79952 25.498 -3.32311 18.992 2.65973Z" fill="#D19B61"/>
                <path d="M23.4623 11.3241C23.7906 9.65154 22.7007 8.02952 21.0281 7.70129C19.3555 7.37306 17.7335 8.46288 17.4053 10.1355V10.1356L17.4052 10.1356C17.0731 11.241 17.2671 11.5942 17.1279 12.6567C16.9792 13.7918 16.789 13.5042 16.5249 14.8502C16.1309 16.8576 17.4389 18.8043 19.4463 19.1982C21.4183 19.5852 23.3306 18.3292 23.771 16.3817C23.7792 16.348 23.7872 16.3134 23.7943 16.2768C24.2007 14.206 23.0896 13.2235 23.4623 11.3241Z" fill="#AF773F"/>
                <path d="M16.7537 25.1008C16.7537 26.8344 15.74 28.2398 14.4896 28.2398C13.2392 28.2398 12.2256 26.8344 12.2256 25.1008C12.2256 23.3672 13.2392 21.9618 14.4896 21.9618C15.74 21.9618 16.7537 23.3672 16.7537 25.1008ZM23.7696 7.66653L23.9404 7.36413C27.8898 3.73233 24.505 0.28037 20.9522 3.54734C20.5942 3.87654 20.2886 4.2229 20.0285 4.58087C21.5106 5.35747 22.7892 6.42282 23.7696 7.66653ZM5.04986 7.35954L5.2174 7.6569C6.1991 6.41449 7.47849 5.3505 8.96106 4.57548C8.70187 4.21865 8.39743 3.87342 8.04099 3.54514C4.49081 0.275329 1.10331 3.72463 5.04986 7.35954Z" fill="#FFA1E0"/>
                <path d="M20.8056 20.0888C20.3764 18.4869 19.1764 17.3146 17.7655 16.9231V13.7623C17.7655 11.953 16.2988 10.4863 14.4896 10.4863C12.6804 10.4863 11.2137 11.953 11.2137 13.7623V16.9231C9.80284 17.3146 8.60285 18.4869 8.17363 20.0888C7.54763 22.425 8.79769 24.7897 10.9656 25.3706C12.1495 25.6878 13.3616 25.4063 14.3206 24.7059V21.9618H14.6587V24.7059C15.6177 25.4063 16.8298 25.6878 18.0137 25.3706C20.1816 24.7897 21.4316 22.4249 20.8056 20.0888Z" fill="#EADFD6"/>
                <path d="M10.8082 22.954C10.8082 22.9002 10.8296 22.8487 10.8676 22.8107C10.9056 22.7727 10.9571 22.7513 11.0109 22.7513C11.0646 22.7513 11.1162 22.7727 11.1542 22.8107C11.1922 22.8487 11.2135 22.9002 11.2135 22.954C11.2135 23.0077 11.1922 23.0593 11.1542 23.0973C11.1162 23.1353 11.0646 23.1566 11.0109 23.1566C10.9571 23.1566 10.9056 23.1353 10.8676 23.0973C10.8296 23.0593 10.8082 23.0077 10.8082 22.954ZM10.5426 20.9222C10.5963 20.9222 10.6479 20.9009 10.6859 20.8629C10.7239 20.8249 10.7452 20.7733 10.7452 20.7196C10.7452 20.6658 10.7239 20.6143 10.6859 20.5763C10.6479 20.5383 10.5963 20.5169 10.5426 20.5169C10.4888 20.5169 10.4373 20.5383 10.3993 20.5763C10.3613 20.6143 10.3399 20.6658 10.3399 20.7196C10.3399 20.7733 10.3613 20.8249 10.3993 20.8629C10.4373 20.9009 10.4888 20.9222 10.5426 20.9222ZM9.30276 22.3671C9.35651 22.3671 9.40805 22.3458 9.44606 22.3078C9.48407 22.2698 9.50542 22.2182 9.50542 22.1645C9.50542 22.1107 9.48407 22.0592 9.44606 22.0212C9.40805 21.9832 9.35651 21.9618 9.30276 21.9618C9.24901 21.9618 9.19746 21.9832 9.15946 22.0212C9.12145 22.0592 9.1001 22.1107 9.1001 22.1645C9.1001 22.2182 9.12145 22.2698 9.15946 22.3078C9.19746 22.3458 9.24901 22.3671 9.30276 22.3671ZM17.9486 20.5168C17.8948 20.5168 17.8433 20.5382 17.8052 20.5762C17.7672 20.6142 17.7459 20.6658 17.7459 20.7195C17.7459 20.7733 17.7672 20.8248 17.8052 20.8628C17.8433 20.9008 17.8948 20.9222 17.9486 20.9222C18.0023 20.9222 18.0538 20.9008 18.0919 20.8628C18.1299 20.8248 18.1512 20.7733 18.1512 20.7195C18.1512 20.6658 18.1299 20.6142 18.0919 20.5762C18.0538 20.5382 18.0023 20.5168 17.9486 20.5168ZM18.4169 22.7513C18.3631 22.7513 18.3116 22.7727 18.2736 22.8107C18.2355 22.8487 18.2142 22.9002 18.2142 22.954C18.2142 23.0077 18.2355 23.0593 18.2736 23.0973C18.3116 23.1353 18.3631 23.1566 18.4169 23.1566C18.4706 23.1566 18.5222 23.1353 18.5602 23.0973C18.5982 23.0593 18.6195 23.0077 18.6195 22.954C18.6195 22.9002 18.5982 22.8487 18.5602 22.8107C18.5222 22.7727 18.4706 22.7513 18.4169 22.7513ZM19.6567 21.3064C19.6029 21.3064 19.5514 21.3278 19.5134 21.3658C19.4754 21.4038 19.454 21.4553 19.454 21.5091C19.454 21.5628 19.4754 21.6144 19.5134 21.6524C19.5514 21.6904 19.6029 21.7117 19.6567 21.7117C19.7104 21.7117 19.762 21.6904 19.8 21.6524C19.838 21.6144 19.8593 21.5628 19.8593 21.5091C19.8593 21.4553 19.838 21.4038 19.8 21.3658C19.762 21.3278 19.7104 21.3064 19.6567 21.3064Z" fill="#AF773F"/>
                <path d="M8.50281 11.9075C9.31526 11.9075 9.97388 12.5661 9.97388 13.3785V15.5682C9.97388 16.3807 9.31526 17.0393 8.50281 17.0393C7.69036 17.0393 7.03174 16.3807 7.03174 15.5682V13.3785C7.03174 12.5661 7.69036 11.9075 8.50281 11.9075ZM20.4766 11.9075C19.6641 11.9075 19.0055 12.5661 19.0055 13.3785V15.5682C19.0055 16.3807 19.6641 17.0393 20.4766 17.0393C21.289 17.0393 21.9477 16.3807 21.9477 15.5682V13.3785C21.9477 12.5661 21.289 11.9075 20.4766 11.9075ZM15.7528 19.8394C15.7528 19.8394 15.1304 19.8617 14.508 19.8709L13.2633 19.8394C12.9906 19.8341 12.7134 19.9489 12.5264 20.1758C12.2016 20.57 12.2579 21.1528 12.652 21.4775L13.2633 21.9812C13.2633 21.9812 13.4189 22.1094 13.6523 22.2165C13.769 22.255 13.9052 22.3153 14.051 22.3522L14.3208 22.3843V24.7059C14.3782 24.6641 14.4345 24.6209 14.4898 24.5763C14.5451 24.6209 14.6014 24.6641 14.6588 24.7059V22.4072C14.7633 22.3977 14.8664 22.3724 14.9651 22.3653C15.111 22.3633 15.2471 22.275 15.3638 22.236C15.5972 22.1335 15.7528 21.9812 15.7528 21.9812L16.4023 21.3453C16.4892 21.2598 16.5573 21.1571 16.6023 21.0439C16.6473 20.9306 16.6682 20.8092 16.6637 20.6874C16.6462 20.2016 16.2384 19.822 15.7528 19.8394Z" fill="#2B3B47"/>
            </svg>